/* XPM */
static char *corner[] = {
/* columns rows colors chars-per-pixel */
"8 16 2 1 ",
"  c white",
". c black",
/* pixels */
"        ",
"        ",
" ....   ",
" ...    ",
" ..     ",
" .      ",
"        ",
"        ",
"        ",
"        ",
"        ",
"        ",
"        ",
"        ",
"        ",
"        "
};
