/* XPM */
static char * layout_tabbed_xpm[] = {
"32 18 5 1",
" 	c None",
".	c #586E75",
"+	c #8ECF6E",
"@	c #002B36",
"#	c #5D8749",
"                                ",
" .++++++                        ",
" .++++++@#######@######@######. ",
" .@@@@@@@@@@@@@@@@@@@@@@@@@@@@. ",
" .@@@@@@@@@@@@@@@@@@@@@@@@@@@@. ",
" .@@@@@@@@@@@@@@@@@@@@@@@@@@@@. ",
" .@@@@@@@@@@@@@@@@@@@@@@@@@@@@. ",
" .@@@@@@@@@@@@@@@@@@@@@@@@@@@@. ",
" .@@@@@@@@@@@@@@@@@@@@@@@@@@@@. ",
" .@@@@@@@@@@@@@@@@@@@@@@@@@@@@. ",
" .@@@@@@@@@@@@@@@@@@@@@@@@@@@@. ",
" .@@@@@@@@@@@@@@@@@@@@@@@@@@@@. ",
" .@@@@@@@@@@@@@@@@@@@@@@@@@@@@. ",
" .@@@@@@@@@@@@@@@@@@@@@@@@@@@@. ",
" .@@@@@@@@@@@@@@@@@@@@@@@@@@@@. ",
" .@@@@@@@@@@@@@@@@@@@@@@@@@@@@. ",
" .............................. ",
"                                "};
