/* XPM */
static char *layout_tall_black[] = {
/* columns rows colors chars-per-pixel */
"12 12 2 1 ",
"  c white",
". c black",
/* pixels */
"            ",
"            ",
" ...... ... ",
" ...... ... ",
" ......     ",
" ...... ... ",
" ...... ... ",
" ......     ",
" ...... ... ",
" ...... ... ",
"            ",
"            "
};
