/* XPM */
static char *layout_mirror_top[] = {
/* columns rows colors chars-per-pixel */
"18 18 2 1 ",
"  c white",
". c black",
/* pixels */
"                  ",
"                  ",
"                  ",
"                  ",
"  ..............  ",
"  .   .    .   .  ",
"  .   .    .   .  ",
"  ..............  ",
"  .            .  ",
"  .            .  ",
"  .            .  ",
"  .            .  ",
"  .            .  ",
"  ..............  ",
"                  ",
"                  ",
"                  ",
"                  "
};
