/* XPM */
static char * layout_gimp_xpm[] = {
"32 18 3 1",
" 	c None",
".	c #586E75",
"+	c #002B36",
"                                ",
" .............................. ",
" .+++++.++++++++++++++++.+++++. ",
" .+.+.+.++++++++++++++++.+++++. ",
" .+++++.++++++++++++++++.+++++. ",
" .+.+.+.++++++++++++++++.+++++. ",
" .+++++.++++++++++++++++.+++++. ",
" .+.+.+.++++++++++++++++.+++++. ",
" .+++++.++++++++++++++++.+++++. ",
" .......++++++++++++++++....... ",
" .+++++.++++++++++++++++.+++++. ",
" .+++++.++++++++++++++++.+++++. ",
" .+++++.++++++++++++++++.+++++. ",
" .......++++++++++++++++.+++++. ",
" .+++++.++++++++++++++++.+++++. ",
" .+++++.++++++++++++++++.+++++. ",
" .............................. ",
"                                "};
