/* XPM */
static char *layout_im_tall[] = {
/* columns rows colors chars-per-pixel */
"18 18 2 1 ",
"  c white",
". c black",
/* pixels */
"                  ",
"                  ",
"                  ",
"                  ",
"  ..............  ",
"  .   .     .  .  ",
"  .   .     .  .  ",
"  .   .     .  .  ",
"  .   .     .  .  ",
"  .   .     .  .  ",
"  .   .     .  .  ",
"  .   .     .  .  ",
"  .   .     .  .  ",
"  ..............  ",
"                  ",
"                  ",
"                  ",
"                  "
};
