/* XPM */
static char *layout_threecol[] = {
/* columns rows colors chars-per-pixel */
"18 18 2 1 ",
"  c white",
". c black",
/* pixels */
"                  ",
"                  ",
"                  ",
"                  ",
"  ..............  ",
"  .   .    .   .  ",
"  .   .    .   .  ",
"  .   .    .   .  ",
"  .   .    .   .  ",
"  .   .    .   .  ",
"  .   .    .   .  ",
"  .   .    .   .  ",
"  .   .    .   .  ",
"  ..............  ",
"                  ",
"                  ",
"                  ",
"                  "
};
