/* XPM */
static char *load[] = {
/* columns rows colors chars-per-pixel */
"16 16 2 1 ",
"  c white",
". c black",
/* pixels */
"                ",
" .............. ",
" .            . ",
" .            . ",
" .            . ",
" .            . ",
" .        .   . ",
" .       . .  . ",
" .      .   ... ",
" ...   .      . ",
" .  . .       . ",
" .   .        . ",
" .            . ",
" .            . ",
" .............. ",
"                "
};
