#define media_next_width 64
#define media_next_height 64
static unsigned char media_next_bits[] = {
   0x00, 0x00, 0x00, 0x00, 0x00, 0x00, 0x00, 0x00, 0x00, 0x00, 0x00, 0x00,
   0x00, 0x00, 0x00, 0x00, 0x00, 0x00, 0x00, 0x00, 0x00, 0x00, 0x00, 0x00,
   0x00, 0x00, 0x00, 0x00, 0x00, 0x00, 0x00, 0x00, 0x00, 0x00, 0x00, 0x00,
   0x00, 0x00, 0x00, 0x00, 0x00, 0x00, 0x00, 0x00, 0x00, 0x00, 0x00, 0x00,
   0x00, 0x00, 0x00, 0x00, 0x00, 0x00, 0x00, 0x00, 0x00, 0x00, 0x00, 0x00,
   0x00, 0x00, 0x00, 0x00, 0x00, 0x00, 0x00, 0x00, 0x00, 0x00, 0x00, 0x00,
   0x00, 0x00, 0x00, 0x00, 0x00, 0x00, 0x00, 0x00, 0x00, 0x00, 0x00, 0x00,
   0x00, 0x00, 0x00, 0x00, 0x00, 0x00, 0x00, 0x00, 0x00, 0x00, 0x00, 0x00,
   0x00, 0x00, 0x00, 0x00, 0x00, 0x00, 0x00, 0x00, 0x00, 0x00, 0x00, 0x00,
   0x00, 0xf8, 0x1f, 0x00, 0x00, 0x18, 0x00, 0x00, 0x00, 0xf8, 0x1f, 0x00,
   0x00, 0x38, 0x00, 0x00, 0x00, 0xf8, 0x1f, 0x00, 0x00, 0xf8, 0x00, 0x00,
   0x00, 0xf8, 0x1f, 0x00, 0x00, 0xf8, 0x03, 0x00, 0x00, 0xf8, 0x1f, 0x00,
   0x00, 0xf8, 0x0f, 0x00, 0x00, 0xf8, 0x1f, 0x00, 0x00, 0xf8, 0x1f, 0x00,
   0x00, 0xf8, 0x1f, 0x00, 0x00, 0xf8, 0x7f, 0x00, 0x00, 0xf8, 0x1f, 0x00,
   0x00, 0xf8, 0xff, 0x01, 0x00, 0xf8, 0x1f, 0x00, 0x00, 0xf8, 0xff, 0x03,
   0x00, 0xf8, 0x1f, 0x00, 0x00, 0xf8, 0xff, 0x0f, 0x00, 0xf8, 0x1f, 0x00,
   0x00, 0xf8, 0xff, 0x3f, 0x00, 0xf8, 0x1f, 0x00, 0x00, 0xf8, 0xff, 0xff,
   0x00, 0xf8, 0x1f, 0x00, 0x00, 0xf8, 0xff, 0xff, 0x01, 0xf8, 0x1f, 0x00,
   0x00, 0xf8, 0xff, 0xff, 0x07, 0xf8, 0x1f, 0x00, 0x00, 0xf8, 0xff, 0xff,
   0x1f, 0xf8, 0x1f, 0x00, 0x00, 0xf8, 0xff, 0xff, 0x7f, 0xf8, 0x1f, 0x00,
   0x00, 0xf8, 0xff, 0xff, 0xff, 0xf8, 0x1f, 0x00, 0x00, 0xf8, 0xff, 0xff,
   0xff, 0xfb, 0x1f, 0x00, 0x00, 0xf8, 0xff, 0xff, 0xff, 0xfb, 0x1f, 0x00,
   0x00, 0xf8, 0xff, 0xff, 0xff, 0xf9, 0x1f, 0x00, 0x00, 0xf8, 0xff, 0xff,
   0x7f, 0xf8, 0x1f, 0x00, 0x00, 0xf8, 0xff, 0xff, 0x1f, 0xf8, 0x1f, 0x00,
   0x00, 0xf8, 0xff, 0xff, 0x07, 0xf8, 0x1f, 0x00, 0x00, 0xf8, 0xff, 0xff,
   0x03, 0xf8, 0x1f, 0x00, 0x00, 0xf8, 0xff, 0xff, 0x00, 0xf8, 0x1f, 0x00,
   0x00, 0xf8, 0xff, 0x3f, 0x00, 0xf8, 0x1f, 0x00, 0x00, 0xf8, 0xff, 0x1f,
   0x00, 0xf8, 0x1f, 0x00, 0x00, 0xf8, 0xff, 0x07, 0x00, 0xf8, 0x1f, 0x00,
   0x00, 0xf8, 0xff, 0x01, 0x00, 0xf8, 0x1f, 0x00, 0x00, 0xf8, 0x7f, 0x00,
   0x00, 0xf8, 0x1f, 0x00, 0x00, 0xf8, 0x3f, 0x00, 0x00, 0xf8, 0x1f, 0x00,
   0x00, 0xf8, 0x0f, 0x00, 0x00, 0xf8, 0x1f, 0x00, 0x00, 0xf8, 0x03, 0x00,
   0x00, 0xf8, 0x1f, 0x00, 0x00, 0xf8, 0x00, 0x00, 0x00, 0xf8, 0x1f, 0x00,
   0x00, 0x78, 0x00, 0x00, 0x00, 0xf8, 0x1f, 0x00, 0x00, 0x18, 0x00, 0x00,
   0x00, 0xf8, 0x1f, 0x00, 0x00, 0x00, 0x00, 0x00, 0x00, 0xf8, 0x1f, 0x00,
   0x00, 0x00, 0x00, 0x00, 0x00, 0x00, 0x00, 0x00, 0x00, 0x00, 0x00, 0x00,
   0x00, 0x00, 0x00, 0x00, 0x00, 0x00, 0x00, 0x00, 0x00, 0x00, 0x00, 0x00,
   0x00, 0x00, 0x00, 0x00, 0x00, 0x00, 0x00, 0x00, 0x00, 0x00, 0x00, 0x00,
   0x00, 0x00, 0x00, 0x00, 0x00, 0x00, 0x00, 0x00, 0x00, 0x00, 0x00, 0x00,
   0x00, 0x00, 0x00, 0x00, 0x00, 0x00, 0x00, 0x00, 0x00, 0x00, 0x00, 0x00,
   0x00, 0x00, 0x00, 0x00, 0x00, 0x00, 0x00, 0x00, 0x00, 0x00, 0x00, 0x00,
   0x00, 0x00, 0x00, 0x00, 0x00, 0x00, 0x00, 0x00, 0x00, 0x00, 0x00, 0x00,
   0x00, 0x00, 0x00, 0x00, 0x00, 0x00, 0x00, 0x00, 0x00, 0x00, 0x00, 0x00,
   0x00, 0x00, 0x00, 0x00, 0x00, 0x00, 0x00, 0x00 };
