/* XPM */
static char *mem[] = {
/* columns rows colors chars-per-pixel */
"16 16 2 1 ",
"  c white",
". c black",
/* pixels */
"                ",
"                ",
"                ",
"   .  .  .  .   ",
"   .  .  .  .   ",
"  ............  ",
"  ............  ",
"  ............  ",
"  ............  ",
"  ............  ",
"  ............  ",
"   .  .  .  .   ",
"   .  .  .  .   ",
"                ",
"                ",
"                "
};
