/* XPM */
static char *mic_unmute64[] = {
/* columns rows colors chars-per-pixel */
"64 64 2 1 ",
"  c white",
". c black",
/* pixels */
"                                                                ",
"                                                                ",
"                                                                ",
"                           ..........                           ",
"                         ..............                         ",
"                        ................                        ",
"                       ..................                       ",
"                       ..................                       ",
"                      ....................                      ",
"                     ......................                     ",
"                     ......................                     ",
"                     ......................                     ",
"                     ......................                     ",
"                     ......................                     ",
"                     ......................                     ",
"                     ......................                     ",
"                     ......................                     ",
"                     ......................                     ",
"                     ......................                     ",
"                     ......................                     ",
"                     ......................                     ",
"                     ......................                     ",
"                     ......................                     ",
"                     ......................                     ",
"                     ......................                     ",
"             ..      ......................      ..             ",
"            ....     ......................     ....            ",
"            ....     ......................     ....            ",
"            ....     ......................     ....            ",
"            ....     ......................     ....            ",
"            ....     ......................     ....            ",
"            ....     ......................     ....            ",
"            ....     ......................     ....            ",
"            ....     ......................     ....            ",
"            ....     ......................     ....            ",
"            ....     ......................     ....            ",
"            .....     ....................     .....            ",
"            .....     ....................     .....            ",
"             ....      ..................      ....             ",
"             .....      ................      .....             ",
"             ......      ..............      ......             ",
"              .....       ............       .....              ",
"               .....         .......        .....               ",
"                .....                      ......               ",
"                .......                   ......                ",
"                 .......                .......                 ",
"                  .......              .......                  ",
"                   ..........       .........                   ",
"                    ........................                    ",
"                      ....................                      ",
"                        .................                       ",
"                          ............                          ",
"                              ....                              ",
"                              ....                              ",
"                              ....                              ",
"                              ....                              ",
"                              ....                              ",
"                   ..........................                   ",
"                   ..........................                   ",
"                   ..........................                   ",
"                   ..........................                   ",
"                                                                ",
"                                                                ",
"                                                                "
};
