/* XPM */
static char *net_wifi3[] = {
/* columns rows colors chars-per-pixel */
"16 16 2 1 ",
"  c white",
". c black",
/* pixels */
"                ",
"    ........    ",
"   .        .   ",
"  .  ......  .  ",
"    .      .    ",
"                ",
"      ....      ",
"      ....      ",
"    ........    ",
"    ........    ",
"    ........    ",
"    ........    ",
"    ........    ",
"                ",
"                ",
"                "
};
