/* XPM */
static char *net_wifi[] = {
/* columns rows colors chars-per-pixel */
"16 11 2 1 ",
"  c white",
". c black",
/* pixels */
"    ........    ",
"   .        .   ",
"  .  ......  .  ",
"    .      .    ",
"      ....      ",
"     .    .     ",
"       ..       ",
"                ",
"                ",
"       ..       ",
"      ....      "
};
