#define net_wired3_width 16
#define net_wired3_height 11
static unsigned char net_wired3_bits[] = {
   0x00, 0x00, 0x02, 0x40, 0x02, 0x40, 0xc2, 0x43, 0xc2, 0x43, 0xf2, 0x4f,
   0xf2, 0x4f, 0xf2, 0x4f, 0x02, 0x40, 0x02, 0x40, 0x00, 0x00 };
