#define pause_icon_width 64
#define pause_icon_height 64
static unsigned char pause_icon_bits[] = {
   0x00, 0x00, 0x00, 0x00, 0x00, 0x00, 0x00, 0x00, 0x00, 0x00, 0x00, 0x00,
   0x00, 0x00, 0x00, 0x00, 0x00, 0x00, 0x00, 0x00, 0x00, 0x00, 0x00, 0x00,
   0x00, 0x00, 0x00, 0x00, 0x00, 0x00, 0x00, 0x00, 0x00, 0x00, 0x00, 0x00,
   0x00, 0x00, 0x00, 0x00, 0x00, 0x00, 0x00, 0x00, 0x00, 0x00, 0x00, 0x00,
   0x00, 0x00, 0x00, 0x00, 0x00, 0x00, 0x00, 0x00, 0x00, 0x00, 0x00, 0x00,
   0x00, 0x00, 0x00, 0x00, 0x00, 0x00, 0x00, 0x00, 0x00, 0x00, 0x00, 0x00,
   0x00, 0x00, 0x00, 0x00, 0x00, 0x00, 0x00, 0x00, 0x00, 0x00, 0x00, 0x00,
   0x00, 0x00, 0x00, 0x00, 0x00, 0x00, 0x00, 0x00, 0x00, 0x00, 0x00, 0x00,
   0x00, 0x00, 0xff, 0x01, 0x80, 0xff, 0x00, 0x00, 0x00, 0x80, 0xff, 0x07,
   0xe0, 0xff, 0x01, 0x00, 0x00, 0x80, 0xff, 0x07, 0xe0, 0xff, 0x01, 0x00,
   0x00, 0x80, 0xff, 0x07, 0xe0, 0xff, 0x01, 0x00, 0x00, 0x80, 0xff, 0x07,
   0xe0, 0xff, 0x01, 0x00, 0x00, 0x80, 0xff, 0x07, 0xe0, 0xff, 0x01, 0x00,
   0x00, 0x80, 0xff, 0x07, 0xe0, 0xff, 0x01, 0x00, 0x00, 0x80, 0xff, 0x07,
   0xe0, 0xff, 0x01, 0x00, 0x00, 0x80, 0xff, 0x07, 0xe0, 0xff, 0x01, 0x00,
   0x00, 0x80, 0xff, 0x07, 0xe0, 0xff, 0x01, 0x00, 0x00, 0x80, 0xff, 0x07,
   0xe0, 0xff, 0x01, 0x00, 0x00, 0x80, 0xff, 0x07, 0xe0, 0xff, 0x01, 0x00,
   0x00, 0x80, 0xff, 0x07, 0xe0, 0xff, 0x01, 0x00, 0x00, 0x80, 0xff, 0x07,
   0xe0, 0xff, 0x01, 0x00, 0x00, 0x80, 0xff, 0x07, 0xe0, 0xff, 0x01, 0x00,
   0x00, 0x80, 0xff, 0x07, 0xe0, 0xff, 0x01, 0x00, 0x00, 0x80, 0xff, 0x07,
   0xe0, 0xff, 0x01, 0x00, 0x00, 0x80, 0xff, 0x07, 0xe0, 0xff, 0x01, 0x00,
   0x00, 0x80, 0xff, 0x07, 0xe0, 0xff, 0x01, 0x00, 0x00, 0x80, 0xff, 0x07,
   0xe0, 0xff, 0x01, 0x00, 0x00, 0x80, 0xff, 0x07, 0xe0, 0xff, 0x01, 0x00,
   0x00, 0x80, 0xff, 0x07, 0xe0, 0xff, 0x01, 0x00, 0x00, 0x80, 0xff, 0x07,
   0xe0, 0xff, 0x01, 0x00, 0x00, 0x80, 0xff, 0x07, 0xe0, 0xff, 0x01, 0x00,
   0x00, 0x80, 0xff, 0x07, 0xe0, 0xff, 0x01, 0x00, 0x00, 0x80, 0xff, 0x07,
   0xe0, 0xff, 0x01, 0x00, 0x00, 0x80, 0xff, 0x07, 0xe0, 0xff, 0x01, 0x00,
   0x00, 0x80, 0xff, 0x07, 0xe0, 0xff, 0x01, 0x00, 0x00, 0x80, 0xff, 0x07,
   0xe0, 0xff, 0x01, 0x00, 0x00, 0x80, 0xff, 0x07, 0xe0, 0xff, 0x01, 0x00,
   0x00, 0x80, 0xff, 0x07, 0xe0, 0xff, 0x01, 0x00, 0x00, 0x80, 0xff, 0x07,
   0xe0, 0xff, 0x01, 0x00, 0x00, 0x80, 0xff, 0x07, 0xe0, 0xff, 0x01, 0x00,
   0x00, 0x80, 0xff, 0x07, 0xe0, 0xff, 0x01, 0x00, 0x00, 0x80, 0xff, 0x07,
   0xe0, 0xff, 0x01, 0x00, 0x00, 0x80, 0xff, 0x07, 0xe0, 0xff, 0x01, 0x00,
   0x00, 0x80, 0xff, 0x07, 0xe0, 0xff, 0x01, 0x00, 0x00, 0x80, 0xff, 0x07,
   0xe0, 0xff, 0x01, 0x00, 0x00, 0x80, 0xff, 0x07, 0xe0, 0xff, 0x01, 0x00,
   0x00, 0x00, 0xff, 0x01, 0x80, 0xff, 0x00, 0x00, 0x00, 0x00, 0x00, 0x00,
   0x00, 0x00, 0x00, 0x00, 0x00, 0x00, 0x00, 0x00, 0x00, 0x00, 0x00, 0x00,
   0x00, 0x00, 0x00, 0x00, 0x00, 0x00, 0x00, 0x00, 0x00, 0x00, 0x00, 0x00,
   0x00, 0x00, 0x00, 0x00, 0x00, 0x00, 0x00, 0x00, 0x00, 0x00, 0x00, 0x00,
   0x00, 0x00, 0x00, 0x00, 0x00, 0x00, 0x00, 0x00, 0x00, 0x00, 0x00, 0x00,
   0x00, 0x00, 0x00, 0x00, 0x00, 0x00, 0x00, 0x00, 0x00, 0x00, 0x00, 0x00,
   0x00, 0x00, 0x00, 0x00, 0x00, 0x00, 0x00, 0x00, 0x00, 0x00, 0x00, 0x00,
   0x00, 0x00, 0x00, 0x00, 0x00, 0x00, 0x00, 0x00, 0x00, 0x00, 0x00, 0x00,
   0x00, 0x00, 0x00, 0x00, 0x00, 0x00, 0x00, 0x00 };
