/* XPM */
static char *play[] = {
/* columns rows colors chars-per-pixel */
"8 8 2 1 ",
"  c white",
". c black",
/* pixels */
"        ",
" ..     ",
" ....   ",
" ...... ",
" ...... ",
" ....   ",
" ..     ",
"        "
};
