/* XPM */
static char *power_ac2[] = {
/* columns rows colors chars-per-pixel */
"8 8 2 1 ",
"  c white",
". c black",
/* pixels */
"        ",
"        ",
"   ...  ",
"  ....  ",
"  ....  ",
"   ...  ",
"    .   ",
"        "
};
