#define power-ac2_width 8
#define power-ac2_height 8
static char power-ac2_bits[] = {
  0x00, 0x00, 0x38, 0x3C, 0x3C, 0x38, 0x10, 0x00, };
