/* XPM */
static char *power_bat3[] = {
/* columns rows colors chars-per-pixel */
"16 11 2 1 ",
"  c white",
". c black",
/* pixels */
"                ",
"                ",
" ............   ",
" ......    ..   ",
" ......    .... ",
" ......    .... ",
" ......    .... ",
" ......    .... ",
" ......    ..   ",
" ............   ",
"                "
};
