#define power_charging_width 16
#define power_charging_height 11
static unsigned char power_charging_bits[] = {
   0x00, 0x00, 0xfe, 0x1f, 0x7e, 0x1f, 0x7e, 0x7e, 0x72, 0x79, 0x4e, 0x67,
   0x3e, 0x7f, 0x7e, 0x1f, 0xfe, 0x1f, 0x00, 0x00, 0x00, 0x00 };
