#define power_ac3_width 16
#define power_ac3_height 16
static unsigned char power_ac3_bits[] = {
   0x00, 0x00, 0xc0, 0x03, 0xc0, 0x03, 0xf0, 0x0f, 0xf0, 0x0e, 0xf0, 0x0e,
   0x70, 0x0f, 0x70, 0x0f, 0x30, 0x0e, 0x30, 0x0c, 0xf0, 0x0c, 0xf0, 0x0e,
   0x70, 0x0e, 0x70, 0x0f, 0xf0, 0x0f, 0x00, 0x00 };
