#define power_full_width 16
#define power_full_height 11
static unsigned char power_full_bits[] = {
   0x00, 0x00, 0xfe, 0x1f, 0xb6, 0x1b, 0x56, 0x75, 0x56, 0x75, 0x56, 0x75,
   0x56, 0x75, 0xb6, 0x1b, 0xfe, 0x1f, 0x00, 0x00, 0x00, 0x00 };
