/* XPM */
static char *spkr_mute[] = {
/* columns rows colors chars-per-pixel */
"8 8 2 1 ",
"  c white",
". c black",
/* pixels */
"   .    ",
"  ..    ",
"....    ",
".....   ",
".....   ",
"....    ",
"  ..    ",
"   .    "
};
