/* XPM */
static char *square[] = {
/* columns rows colors chars-per-pixel */
"8 16 2 1 ",
"  c white",
". c black",
/* pixels */
"        ",
"        ",
" ....   ",
" ....   ",
" ....   ",
" ....   ",
"        ",
"        ",
"        ",
"        ",
"        ",
"        ",
"        ",
"        ",
"        ",
"        "
};
